<svg xmlns="http://www.w3.org/2000/svg" viewBox="0 0 120 120" width="120" height="120">
  
  <g transform="translate(30 12)">
    <path d="M 0 0 L 48 0 L 56 20 L 48 48 Q 56 72 56 84 L 44 96 L 28 72 L 12 96 L 0 84 Q 0 72 8 48 L 0 20 Z" fill="#7af201"></path>
    <g transform="translate(8 -4)" fill="#ffffff">
      <path d="M 20 20 Q 6 28 4 42 Q 2 54 14 58 L 26 54 Q 30 62 40 62 Q 50 62 54 54 L 66 58 Q 78 54 76 42 Q 74 28 60 20 Q 50 14 40 14 Q 30 14 20 20 Z"></path>
      <path d="M 28 36 Q 26 48 34 54 Q 40 58 46 54 Q 54 48 52 36 Q 50 30 40 30 Q 30 30 28 36 Z" fill="#7af201"></path>
      <ellipse cx="34" cy="40" rx="2.2" ry="3" fill="#202628"></ellipse>
      <ellipse cx="46" cy="40" rx="2.2" ry="3" fill="#202628"></ellipse>
      <path d="M 34 52 L 36 60 L 38 52 Z" fill="#ffffff"></path>
      <path d="M 42 52 L 44 60 L 46 52 Z" fill="#ffffff"></path>
    </g>
  </g>
</svg>